<svg xmlns="http://www.w3.org/2000/svg" viewBox="0 0 800 180" role="img" aria-label="Damped oscillation curve approaching equilibrium">
  <line x1="0" y1="90" x2="800" y2="90" stroke="#bbb" stroke-width="0.5" stroke-dasharray="2 3"/>
  <path d="M 40.00,25.00 L 41.20,25.40 L 42.40,25.97 L 43.60,26.72 L 44.80,27.63 L 46.00,28.70 L 47.20,29.94 L 48.40,31.32 L 49.60,32.86 L 50.80,34.53 L 52.00,36.35 L 53.20,38.29 L 54.40,40.36 L 55.60,42.54 L 56.80,44.83 L 58.00,47.23 L 59.20,49.72 L 60.40,52.30 L 61.60,54.96 L 62.80,57.68 L 64.00,60.47 L 65.20,63.32 L 66.40,66.21 L 67.60,69.14 L 68.80,72.10 L 70.00,75.08 L 71.20,78.07 L 72.40,81.07 L 73.60,84.06 L 74.80,87.04 L 76.00,90.00 L 77.20,92.93 L 78.40,95.83 L 79.60,98.68 L 80.80,101.48 L 82.00,104.22 L 83.20,106.90 L 84.40,109.50 L 85.60,112.03 L 86.80,114.47 L 88.00,116.82 L 89.20,119.08 L 90.40,121.23 L 91.60,123.28 L 92.80,125.21 L 94.00,127.03 L 95.20,128.73 L 96.40,130.31 L 97.60,131.76 L 98.80,133.09 L 100.00,134.28 L 101.20,135.34 L 102.40,136.26 L 103.60,137.05 L 104.80,137.70 L 106.00,138.22 L 107.20,138.59 L 108.40,138.83 L 109.60,138.94 L 110.80,138.90 L 112.00,138.73 L 113.20,138.43 L 114.40,138.00 L 115.60,137.45 L 116.80,136.76 L 118.00,135.96 L 119.20,135.03 L 120.40,133.99 L 121.60,132.84 L 122.80,131.59 L 124.00,130.23 L 125.20,128.77 L 126.40,127.22 L 127.60,125.58 L 128.80,123.86 L 130.00,122.07 L 131.20,120.20 L 132.40,118.27 L 133.60,116.27 L 134.80,114.23 L 136.00,112.14 L 137.20,110.00 L 138.40,107.84 L 139.60,105.64 L 140.80,103.42 L 142.00,101.19 L 143.20,98.94 L 144.40,96.70 L 145.60,94.45 L 146.80,92.22 L 148.00,90.00 L 149.20,87.80 L 150.40,85.63 L 151.60,83.49 L 152.80,81.39 L 154.00,79.34 L 155.20,77.33 L 156.40,75.38 L 157.60,73.48 L 158.80,71.65 L 160.00,69.89 L 161.20,68.20 L 162.40,66.58 L 163.60,65.05 L 164.80,63.60 L 166.00,62.23 L 167.20,60.96 L 168.40,59.78 L 169.60,58.69 L 170.80,57.69 L 172.00,56.80 L 173.20,56.01 L 174.40,55.31 L 175.60,54.72 L 176.80,54.23 L 178.00,53.85 L 179.20,53.57 L 180.40,53.39 L 181.60,53.31 L 182.80,53.34 L 184.00,53.46 L 185.20,53.69 L 186.40,54.01 L 187.60,54.43 L 188.80,54.94 L 190.00,55.54 L 191.20,56.24 L 192.40,57.01 L 193.60,57.88 L 194.80,58.82 L 196.00,59.84 L 197.20,60.93 L 198.40,62.09 L 199.60,63.32 L 200.80,64.61 L 202.00,65.96 L 203.20,67.36 L 204.40,68.81 L 205.60,70.30 L 206.80,71.83 L 208.00,73.40 L 209.20,75.00 L 210.40,76.63 L 211.60,78.27 L 212.80,79.94 L 214.00,81.61 L 215.20,83.29 L 216.40,84.98 L 217.60,86.66 L 218.80,88.34 L 220.00,90.00 L 221.20,91.65 L 222.40,93.28 L 223.60,94.88 L 224.80,96.45 L 226.00,97.99 L 227.20,99.50 L 228.40,100.96 L 229.60,102.38 L 230.80,103.76 L 232.00,105.08 L 233.20,106.35 L 234.40,107.56 L 235.60,108.71 L 236.80,109.79 L 238.00,110.82 L 239.20,111.77 L 240.40,112.66 L 241.60,113.48 L 242.80,114.22 L 244.00,114.89 L 245.20,115.49 L 246.40,116.01 L 247.60,116.45 L 248.80,116.82 L 250.00,117.11 L 251.20,117.32 L 252.40,117.45 L 253.60,117.51 L 254.80,117.49 L 256.00,117.40 L 257.20,117.23 L 258.40,116.99 L 259.60,116.67 L 260.80,116.29 L 262.00,115.83 L 263.20,115.32 L 264.40,114.73 L 265.60,114.08 L 266.80,113.38 L 268.00,112.61 L 269.20,111.79 L 270.40,110.92 L 271.60,110.00 L 272.80,109.04 L 274.00,108.03 L 275.20,106.98 L 276.40,105.89 L 277.60,104.77 L 278.80,103.62 L 280.00,102.44 L 281.20,101.24 L 282.40,100.03 L 283.60,98.79 L 284.80,97.54 L 286.00,96.29 L 287.20,95.03 L 288.40,93.76 L 289.60,92.50 L 290.80,91.25 L 292.00,90.00 L 293.20,88.76 L 294.40,87.54 L 295.60,86.34 L 296.80,85.16 L 298.00,84.01 L 299.20,82.88 L 300.40,81.78 L 301.60,80.72 L 302.80,79.69 L 304.00,78.70 L 305.20,77.74 L 306.40,76.84 L 307.60,75.97 L 308.80,75.16 L 310.00,74.39 L 311.20,73.67 L 312.40,73.01 L 313.60,72.40 L 314.80,71.84 L 316.00,71.34 L 317.20,70.89 L 318.40,70.50 L 319.60,70.17 L 320.80,69.89 L 322.00,69.68 L 323.20,69.52 L 324.40,69.42 L 325.60,69.38 L 326.80,69.39 L 328.00,69.46 L 329.20,69.59 L 330.40,69.77 L 331.60,70.00 L 332.80,70.29 L 334.00,70.63 L 335.20,71.02 L 336.40,71.46 L 337.60,71.94 L 338.80,72.47 L 340.00,73.05 L 341.20,73.66 L 342.40,74.31 L 343.60,75.00 L 344.80,75.73 L 346.00,76.48 L 347.20,77.27 L 348.40,78.09 L 349.60,78.93 L 350.80,79.79 L 352.00,80.67 L 353.20,81.57 L 354.40,82.48 L 355.60,83.41 L 356.80,84.34 L 358.00,85.28 L 359.20,86.23 L 360.40,87.18 L 361.60,88.12 L 362.80,89.06 L 364.00,90.00 L 365.20,90.93 L 366.40,91.84 L 367.60,92.74 L 368.80,93.63 L 370.00,94.49 L 371.20,95.34 L 372.40,96.16 L 373.60,96.96 L 374.80,97.73 L 376.00,98.48 L 377.20,99.19 L 378.40,99.87 L 379.60,100.52 L 380.80,101.13 L 382.00,101.70 L 383.20,102.24 L 384.40,102.74 L 385.60,103.20 L 386.80,103.62 L 388.00,103.99 L 389.20,104.33 L 390.40,104.62 L 391.60,104.87 L 392.80,105.07 L 394.00,105.24 L 395.20,105.36 L 396.40,105.43 L 397.60,105.46 L 398.80,105.45 L 400.00,105.40 L 401.20,105.31 L 402.40,105.17 L 403.60,104.99 L 404.80,104.78 L 406.00,104.52 L 407.20,104.23 L 408.40,103.90 L 409.60,103.54 L 410.80,103.14 L 412.00,102.71 L 413.20,102.25 L 414.40,101.76 L 415.60,101.24 L 416.80,100.70 L 418.00,100.13 L 419.20,99.54 L 420.40,98.93 L 421.60,98.30 L 422.80,97.66 L 424.00,97.00 L 425.20,96.32 L 426.40,95.64 L 427.60,94.94 L 428.80,94.24 L 430.00,93.54 L 431.20,92.83 L 432.40,92.12 L 433.60,91.41 L 434.80,90.70 L 436.00,90.00 L 437.20,89.31 L 438.40,88.62 L 439.60,87.94 L 440.80,87.28 L 442.00,86.63 L 443.20,86.00 L 444.40,85.38 L 445.60,84.78 L 446.80,84.20 L 448.00,83.65 L 449.20,83.11 L 450.40,82.60 L 451.60,82.12 L 452.80,81.66 L 454.00,81.23 L 455.20,80.82 L 456.40,80.45 L 457.60,80.10 L 458.80,79.79 L 460.00,79.51 L 461.20,79.26 L 462.40,79.04 L 463.60,78.85 L 464.80,78.70 L 466.00,78.58 L 467.20,78.49 L 468.40,78.43 L 469.60,78.41 L 470.80,78.41 L 472.00,78.45 L 473.20,78.52 L 474.40,78.63 L 475.60,78.76 L 476.80,78.92 L 478.00,79.11 L 479.20,79.33 L 480.40,79.58 L 481.60,79.85 L 482.80,80.15 L 484.00,80.47 L 485.20,80.81 L 486.40,81.18 L 487.60,81.57 L 488.80,81.98 L 490.00,82.40 L 491.20,82.85 L 492.40,83.30 L 493.60,83.77 L 494.80,84.26 L 496.00,84.76 L 497.20,85.26 L 498.40,85.77 L 499.60,86.29 L 500.80,86.82 L 502.00,87.35 L 503.20,87.88 L 504.40,88.41 L 505.60,88.94 L 506.80,89.47 L 508.00,90.00 L 509.20,90.52 L 510.40,91.04 L 511.60,91.54 L 512.80,92.04 L 514.00,92.53 L 515.20,93.00 L 516.40,93.46 L 517.60,93.91 L 518.80,94.35 L 520.00,94.76 L 521.20,95.17 L 522.40,95.55 L 523.60,95.91 L 524.80,96.26 L 526.00,96.58 L 527.20,96.88 L 528.40,97.16 L 529.60,97.42 L 530.80,97.65 L 532.00,97.87 L 533.20,98.05 L 534.40,98.22 L 535.60,98.36 L 536.80,98.47 L 538.00,98.57 L 539.20,98.63 L 540.40,98.67 L 541.60,98.69 L 542.80,98.69 L 544.00,98.66 L 545.20,98.60 L 546.40,98.53 L 547.60,98.43 L 548.80,98.31 L 550.00,98.16 L 551.20,98.00 L 552.40,97.82 L 553.60,97.61 L 554.80,97.39 L 556.00,97.15 L 557.20,96.89 L 558.40,96.61 L 559.60,96.32 L 560.80,96.02 L 562.00,95.70 L 563.20,95.36 L 564.40,95.02 L 565.60,94.67 L 566.80,94.30 L 568.00,93.93 L 569.20,93.55 L 570.40,93.17 L 571.60,92.78 L 572.80,92.38 L 574.00,91.99 L 575.20,91.59 L 576.40,91.19 L 577.60,90.79 L 578.80,90.39 L 580.00,90.00 L 581.20,89.61 L 582.40,89.22 L 583.60,88.84 L 584.80,88.47 L 586.00,88.11 L 587.20,87.75 L 588.40,87.40 L 589.60,87.07 L 590.80,86.74 L 592.00,86.43 L 593.20,86.13 L 594.40,85.84 L 595.60,85.57 L 596.80,85.31 L 598.00,85.07 L 599.20,84.84 L 600.40,84.63 L 601.60,84.44 L 602.80,84.26 L 604.00,84.10 L 605.20,83.96 L 606.40,83.84 L 607.60,83.73 L 608.80,83.65 L 610.00,83.58 L 611.20,83.53 L 612.40,83.50 L 613.60,83.48 L 614.80,83.49 L 616.00,83.51 L 617.20,83.55 L 618.40,83.61 L 619.60,83.68 L 620.80,83.77 L 622.00,83.88 L 623.20,84.00 L 624.40,84.14 L 625.60,84.29 L 626.80,84.46 L 628.00,84.64 L 629.20,84.84 L 630.40,85.04 L 631.60,85.26 L 632.80,85.49 L 634.00,85.73 L 635.20,85.98 L 636.40,86.24 L 637.60,86.50 L 638.80,86.77 L 640.00,87.05 L 641.20,87.34 L 642.40,87.62 L 643.60,87.92 L 644.80,88.21 L 646.00,88.51 L 647.20,88.81 L 648.40,89.11 L 649.60,89.41 L 650.80,89.70 L 652.00,90.00 L 653.20,90.29 L 654.40,90.58 L 655.60,90.87 L 656.80,91.15 L 658.00,91.42 L 659.20,91.69 L 660.40,91.95 L 661.60,92.20 L 662.80,92.44 L 664.00,92.68 L 665.20,92.90 L 666.40,93.12 L 667.60,93.32 L 668.80,93.52 L 670.00,93.70 L 671.20,93.87 L 672.40,94.03 L 673.60,94.17 L 674.80,94.30 L 676.00,94.42 L 677.20,94.53 L 678.40,94.62 L 679.60,94.70 L 680.80,94.76 L 682.00,94.81 L 683.20,94.85 L 684.40,94.88 L 685.60,94.89 L 686.80,94.88 L 688.00,94.87 L 689.20,94.84 L 690.40,94.79 L 691.60,94.74 L 692.80,94.67 L 694.00,94.59 L 695.20,94.50 L 696.40,94.39 L 697.60,94.28 L 698.80,94.15 L 700.00,94.02 L 701.20,93.87 L 702.40,93.72 L 703.60,93.55 L 704.80,93.38 L 706.00,93.20 L 707.20,93.02 L 708.40,92.82 L 709.60,92.62 L 710.80,92.42 L 712.00,92.21 L 713.20,92.00 L 714.40,91.78 L 715.60,91.56 L 716.80,91.34 L 718.00,91.12 L 719.20,90.89 L 720.40,90.67 L 721.60,90.44 L 722.80,90.22 L 724.00,90.00 L 725.20,89.78 L 726.40,89.56 L 727.60,89.35 L 728.80,89.14 L 730.00,88.94 L 731.20,88.73 L 732.40,88.54 L 733.60,88.35 L 734.80,88.17 L 736.00,87.99 L 737.20,87.82 L 738.40,87.66 L 739.60,87.51 L 740.80,87.36 L 742.00,87.23 L 743.20,87.10 L 744.40,86.98 L 745.60,86.87 L 746.80,86.77 L 748.00,86.68 L 749.20,86.61 L 750.40,86.54 L 751.60,86.48 L 752.80,86.43 L 754.00,86.39 L 755.20,86.36 L 756.40,86.34 L 757.60,86.34 L 758.80,86.34 L 760.00,86.35" fill="none" stroke="#111" stroke-width="1.5" stroke-linecap="round" stroke-linejoin="round"/>
</svg>
